Coordinates
version=1
nRows=49
nColumns=12
inDegrees=yes

Units are S.I. units (second, meters, Newtons, ...)
Angles are in degrees

endheader
time	SC_y	SC_z	SC_x	AC_y	AC_z	AC_x	GH_y	GH_z	GH_yy	EL_x	PS_y
       0.0               -43.4          2.472           48.0          45.65         -4.763          15.88          65.26          4.327          23.74           93.6          39.85
   0.04717               -43.4          2.475          48.01          45.65         -4.764          15.87          65.24          4.334          23.72          93.59          39.86
   0.09434               -43.4          2.478          48.01          45.66         -4.766          15.87          65.21          4.342           23.7          93.58          39.87
    0.1415               -43.4          2.481          48.01          45.66         -4.768          15.87          65.18           4.35          23.68          93.57          39.89
    0.1887               -43.4          2.485          48.01          45.66         -4.769          15.87          65.15          4.359          23.66          93.57           39.9
    0.2359              -43.41          2.488          48.01          45.67         -4.771          15.86          65.12          4.369          23.63          93.56          39.92
     0.283              -43.41          2.492          48.02          45.67         -4.773          15.86          65.08          4.379          23.61          93.55          39.93
    0.3302              -43.41          2.496          48.02          45.68         -4.776          15.86          65.05           4.39          23.58          93.54          39.95
    0.3774              -43.41          2.501          48.02          45.68         -4.778          15.85          65.01          4.401          23.55          93.53          39.97
    0.4245              -43.42          2.505          48.03          45.69         -4.781          15.85          64.96          4.414          23.52          93.52          39.99
    0.4717              -43.42           2.51          48.03          45.69         -4.783          15.84          64.92          4.427          23.49          93.51          40.01
    0.5189              -43.42          2.516          48.03           45.7         -4.786          15.84          64.87          4.442          23.45          93.49          40.03
     0.566              -43.43          2.522          48.04          45.71          -4.79          15.83          64.82          4.457          23.41          93.48          40.06
    0.6132              -43.43          2.528          48.04          45.71         -4.793          15.83          64.76          4.474          23.37          93.46          40.09
    0.6604              -43.44          2.535          48.05          45.72         -4.797          15.82           64.7          4.492          23.33          93.45          40.12
    0.7076              -43.44          2.542          48.05          45.73         -4.801          15.82          64.63          4.512          23.28          93.43          40.15
    0.7547              -43.45           2.55          48.06          45.74         -4.805          15.81          64.56          4.533          23.23          93.41          40.18
    0.8019              -43.45          2.559          48.06          45.75          -4.81           15.8          64.48          4.557          23.17          93.39          40.22
    0.8491              -43.46          2.568          48.07          45.76         -4.816          15.79          64.39          4.582           23.1          93.37          40.26
    0.8962              -43.47          2.579          48.07          45.77         -4.821          15.78           64.3           4.61          23.03          93.34          40.31
    0.9434              -43.48           2.59          48.08          45.79         -4.828          15.77          64.19          4.641          22.96          93.32          40.36
    0.9906              -43.48          2.603          48.09           45.8         -4.835          15.76          64.08          4.674          22.87          93.29          40.41
     1.038              -43.49          2.617           48.1          45.82         -4.842          15.75          63.95          4.711          22.78          93.25          40.47
     1.085               -43.5          2.633          48.11          45.83         -4.851          15.74          63.81          4.753          22.68          93.22          40.54
     1.132              -43.52           2.65          48.12          45.85         -4.861          15.72          63.66          4.799          22.57          93.18          40.61
     1.179              -43.53          2.669          48.13          45.88         -4.871          15.71          63.48           4.85          22.44          93.13           40.7
     1.226              -43.54          2.691          48.15           45.9         -4.883          15.69          63.29          4.907           22.3          93.08          40.79
     1.274              -43.56          2.715          48.16          45.93         -4.896          15.67          63.07          4.971          22.14          93.02          40.89
     1.321              -43.58          2.742          48.18          45.96         -4.912          15.64          62.82          5.044          21.95          92.96          41.01
     1.368               -43.6          2.774           48.2           46.0         -4.929          15.62          62.54          5.127          21.75          92.89          41.15
     1.415              -43.62          2.809          48.22          46.04         -4.948          15.58          62.22          5.221          21.51           92.8           41.3
     1.462              -43.65           2.85          48.25          46.08         -4.971          15.55          61.85           5.33          21.25          92.71          41.47
     1.509              -43.68          2.897          48.28          46.14         -4.997          15.51          61.43          5.455          20.93           92.6          41.68
     1.557              -43.72          2.952          48.32           46.2         -5.027          15.46          60.93            5.6          20.57          92.47          41.91
     1.604              -43.76          3.016          48.36          46.27         -5.062          15.41          60.36           5.77          20.15          92.32          42.19
     1.651              -43.81          3.091          48.41          46.36         -5.104          15.34          59.68          5.971          19.65          92.14          42.51
     1.698              -43.87          3.181          48.47          46.46         -5.153          15.26          58.87          6.209          19.06          91.93           42.9
     1.745              -43.95          3.288          48.54          46.59         -5.212          15.17           57.9          6.495          18.35          91.67          43.36
     1.792              -44.04          3.418          48.62          46.74         -5.284          15.06          56.72           6.84          17.49          91.37          43.92
      1.84              -44.14          3.577          48.73          46.92         -5.372          14.92          55.29          7.262          16.44          90.99          44.61
     1.887              -44.28          3.773          48.85          47.14          -5.48          14.75          53.52          7.783          15.15          90.53          45.45
     1.934              -44.44          4.017          49.01          47.43         -5.615          14.54          51.31          8.433          13.53          89.96           46.5
     1.981              -44.65          4.325          49.21          47.78         -5.784          14.27          48.53          9.251           11.5          89.23          47.83
     2.028              -44.92          4.716          49.47          48.23           -6.0          13.93           45.0          10.29          8.911          88.31          49.51
     2.075              -45.26          5.217           49.8           48.8         -6.277           13.5          40.48          11.62          5.601          87.13          51.67
     2.123              -45.69           5.86          50.22          49.54         -6.631          12.95          34.68          13.33          1.354          85.62          54.44
      2.17              -46.25          6.681          50.75          50.49         -7.084          12.23          27.26          15.51         -4.072          83.68          57.98
     2.217              -46.95          7.713          51.42          51.67         -7.654          11.34          17.94          18.26         -10.89          81.25          62.42
     2.264               -47.8          8.971          52.25          53.12         -8.348          10.25          6.582           21.6         -19.21          78.29          67.84
